<?xml version="1.0" encoding="UTF-8"?> <svg xmlns="http://www.w3.org/2000/svg" width="30" height="30" viewBox="0 0 30 30" fill="none"><path d="M11.7158 23.6206C12.013 23.6206 11.8907 23.2023 11.5757 23.2023C8.10798 23.145 6.62632 22.7607 6.91542 21.8801C7.04726 21.4797 7.68956 20.9908 8.42374 20.3596C8.71149 20.1123 8.99327 19.7246 9.25612 19.2739C10.7055 20.1308 12.4473 20.3195 12.6498 20.6448C12.9092 21.061 13.4055 21.7783 12.839 22.4397C12.272 23.1006 12.7446 23.8567 12.7446 23.8567C12.7446 23.8567 14.4451 23.8567 15.673 23.8567C16.9013 23.8567 16.7126 23.9511 17.0904 23.6676C17.6247 23.2664 16.5234 22.7228 15.7678 22.7228C15.0121 22.7228 13.2168 22.7228 15.1065 20.8336C15.5575 20.3821 15.6941 19.8422 15.8053 19.2278L8.65167 12.0742C7.80247 13.1271 7.26476 14.4072 7.26476 15.9203C7.26476 17.1951 7.77399 18.0784 8.47847 18.71C8.05923 19.4652 7.54436 20.1718 6.95286 20.6939C5.34153 22.1157 4.78143 23.6206 11.7158 23.6206Z" fill="#FF6000"></path><path d="M25.6063 4.39324C22.8964 1.68111 19.1374 -0.000468652 15 9.79744e-08C10.8622 -0.000468652 7.1032 1.68111 4.39371 4.39324C1.68117 7.1032 -0.000820013 10.8627 2.99915e-07 15C-0.000820013 19.1382 1.68117 22.8973 4.39371 25.6068C7.1032 28.3188 10.8622 30.0008 15 30C19.1374 30.0008 22.8964 28.3188 25.6063 25.6068C28.3189 22.8973 30.0009 19.1382 30 15C30.0009 10.8627 28.3189 7.1032 25.6063 4.39324ZM15 27.1655C11.636 27.1651 8.60385 25.8062 6.3975 23.6025C4.19426 21.3962 2.83535 18.364 2.83447 15C2.83535 12.0358 3.89127 9.32936 5.65037 7.2191L22.7813 24.35C20.6711 26.1083 17.9646 27.1651 15 27.1655ZM24.6478 22.4065L18.6966 16.4554C18.9594 16.5415 19.2528 16.613 19.5953 16.6303C20.4652 16.6751 20.5401 17.8582 20.5401 17.8582C20.5401 17.8582 20.7685 18.4709 21.1071 17.8582C21.4458 17.2451 21.2015 18.5191 21.5793 18.1417C22.335 17.386 21.7685 16.1572 20.5401 15.8742C19.3119 15.5907 18.1313 13.8428 19.454 13.0871C20.3411 12.5804 24.0579 10.9975 24.0579 10.9975C25.5021 9.77871 25.1859 9.55078 25.0256 9.06779C24.8684 8.59606 22.2647 7.42072 20.9615 7.33148C20.9395 6.59391 20.3385 6.00105 19.5953 6.00105C18.8388 6.00105 18.2257 6.61453 18.2257 7.37068C18.2257 7.61068 18.2925 7.83299 18.4011 8.02898C17.6859 8.1893 16.857 8.34088 15.9608 8.43744C14.6666 8.57701 13.2112 8.97164 11.8653 9.62396L7.59311 5.35178C9.64512 3.77367 12.2078 2.83576 15 2.83488C18.364 2.8357 21.3962 4.19373 23.6025 6.3975C25.8059 8.60379 27.1647 11.6365 27.1655 15C27.1647 17.7922 26.2259 20.3544 24.6478 22.4065Z" fill="#FF6000"></path></svg> 